<svg width="28" height="20" viewBox="0 0 28 20" fill="none" xmlns="http://www.w3.org/2000/svg">
<path d="M13.9997 5.62395C12.0669 5.62395 10.4998 7.51217 10.4998 9.84181C10.4998 12.171 12.0665 14.0597 13.9997 14.0597C15.9321 14.0597 17.4997 12.1719 17.4997 9.84181C17.4997 7.51217 15.9326 5.62395 13.9997 5.62395ZM27.1752 0.982606C25.4782 0.270807 23.7798 5.26197e-08 22.0824 5.26197e-08C16.6938 -0.000437439 11.3057 2.72732 5.91707 2.72732C4.56566 2.72732 3.21512 2.55583 1.86371 2.12708C1.7119 2.07896 1.55966 2.05621 1.41091 2.05621C0.657987 2.05621 0 2.63895 0 3.44787V17.3277C0 17.8803 0.316306 18.404 0.824234 18.6166C2.52126 19.3288 4.2196 19.5996 5.91707 19.5996C11.3057 19.5996 16.6942 16.8719 22.0828 16.8719C23.4342 16.8719 24.7848 17.0434 26.1362 17.4721C26.288 17.5202 26.4402 17.543 26.589 17.543C27.3419 17.543 27.9999 16.9602 27.9999 16.1513V2.27189C27.9995 1.7189 27.6831 1.19566 27.1752 0.982606ZM25.8995 12.6894C24.7231 12.8382 23.7742 13.7092 23.5204 14.8541C23.0479 14.8139 22.5772 14.7719 22.0824 14.7719C19.1267 14.7719 16.2581 15.4977 13.4844 16.1999C10.8437 16.8684 8.34952 17.4997 5.91707 17.4997C5.5662 17.4997 5.22365 17.4857 4.88853 17.4585C4.82641 15.961 3.60712 14.7632 2.1004 14.7632V7.03005C3.45968 7.03005 4.59104 6.05663 4.84522 4.76603C5.20134 4.78834 5.5487 4.82728 5.91751 4.82728C8.8732 4.82728 11.7414 4.10148 14.5151 3.39931C17.1554 2.73126 19.6495 2.09996 22.0824 2.09996C22.5566 2.09996 23.0107 2.13408 23.457 2.18352C23.4942 3.58174 24.545 4.71397 25.8995 4.88547V12.6894Z" fill="#EDC700"/>
</svg>
